<?xml version="1.0" encoding="utf-8"?>
<!-- Generator: Adobe Illustrator 28.2.0, SVG Export Plug-In . SVG Version: 6.00 Build 0)  -->
<svg xmlns:dc="http://purl.org/dc/elements/1.1/"
   xmlns:svg="http://www.w3.org/2000/svg"
   xmlns="http://www.w3.org/2000/svg" height="80" viewBox="40 0 83 70.88">
<style type="text/css">
	.st0{fill:#FFFFFF;}
	.st1{enable-background:new    ;}
</style>
<g id="PowerShell">
	<path class="st0" d="M54.6,25.6c0,0.3-0.1,0.6-0.2,0.8s-0.3,0.5-0.5,0.7c-0.3,0.2-0.5,0.3-0.8,0.4c-0.3,0.1-0.7,0.2-1,0.2h-0.7v2.1
		h-1.4v-6.1h2.1c0.7-0.1,1.3,0.1,1.8,0.5C54.4,24.5,54.7,25.1,54.6,25.6z M53.2,25.6c0-0.3-0.1-0.6-0.3-0.8
		c-0.3-0.2-0.6-0.3-0.8-0.3h-0.6v2H52c0.3,0,0.7-0.1,0.9-0.3C53.1,26.2,53.2,26,53.2,25.6L53.2,25.6z"/>
	<path class="st0" d="M59.1,29.9c-0.4,0-0.8-0.1-1.3-0.3c-0.3-0.2-0.7-0.3-1-0.7c-0.3-0.3-0.5-0.6-0.7-0.9c-0.2-0.4-0.3-0.8-0.3-1.3
		s0.1-0.8,0.3-1.3s0.3-0.8,0.7-1c0.3-0.3,0.7-0.5,1-0.7c0.4-0.2,0.9-0.3,1.4-0.3c0.4,0,0.8,0.1,1.3,0.3c0.3,0.2,0.7,0.3,0.9,0.7
		c0.3,0.3,0.5,0.6,0.6,0.9c0.2,0.4,0.3,0.8,0.3,1.3c0,0.4-0.1,0.9-0.3,1.4c-0.2,0.3-0.3,0.8-0.7,1c-0.3,0.3-0.6,0.5-1,0.7
		C59.9,29.9,59.5,29.9,59.1,29.9z M59.1,24.6c-0.3,0-0.5,0.1-0.8,0.2c-0.3,0.1-0.4,0.3-0.6,0.4c-0.2,0.2-0.3,0.4-0.3,0.7
		c-0.1,0.3-0.1,0.6-0.1,0.8s0,0.6,0.1,0.8c0.1,0.3,0.2,0.4,0.3,0.7c0.2,0.2,0.3,0.3,0.5,0.4c0.3,0.1,0.5,0.2,0.8,0.2s0.5,0,0.8-0.1
		c0.3-0.1,0.4-0.3,0.5-0.4c0.2-0.2,0.3-0.4,0.3-0.7c0.1-0.3,0.1-0.6,0.1-0.8c0-0.3,0-0.6-0.1-0.9c-0.1-0.3-0.2-0.5-0.3-0.7
		c-0.2-0.2-0.3-0.3-0.5-0.4C59.6,24.7,59.3,24.6,59.1,24.6L59.1,24.6z"/>
	<path class="st0" d="M68.6,23.7l1.2,3.7c0.1,0.2,0.1,0.3,0.2,0.6c0,0.2,0.1,0.3,0.1,0.4c0-0.1,0-0.3,0.1-0.4c0-0.2,0.1-0.3,0.2-0.6
		l0.9-3.7h1.4c-0.3,1-0.6,2-0.9,3s-0.6,2-0.9,3h-1.4l-1.2-3.6c0-0.2-0.1-0.3-0.1-0.5c-0.1-0.2-0.1-0.3-0.1-0.5
		c0,0.2-0.1,0.3-0.1,0.6c0,0.2-0.1,0.3-0.1,0.5c-0.2,0.6-0.4,1.2-0.6,1.9s-0.4,1.2-0.6,1.9h-1.5l-1.9-6.3h1.4l0.9,3.7
		c0.1,0.3,0.1,0.4,0.2,0.6c0,0.2,0.1,0.3,0.1,0.4c0-0.1,0-0.3,0.1-0.4c0-0.2,0.1-0.3,0.2-0.6l1.2-3.7C67.3,23.7,68.6,23.7,68.6,23.7
		z"/>
	<path class="st0" d="M78,29.8h-3.8v-6.1h3.6v1h-2.3v1.5h2.1v1h-2.1v1.5H78V29.8z"/>
	<path class="st0" d="M84.7,29.8h-1.6l-0.9-1.6c-0.1-0.1-0.2-0.3-0.3-0.3c-0.1-0.1-0.2-0.2-0.3-0.3c-0.1-0.1-0.2-0.1-0.3-0.1
		c-0.1,0-0.2,0-0.3,0h-0.3v2.4h-1.4v-6.2h2.2c0.6,0,1.2,0.1,1.7,0.4c0.4,0.3,0.6,0.8,0.6,1.2s-0.2,0.8-0.4,1.1
		c-0.2,0.2-0.3,0.3-0.5,0.3c-0.2,0.1-0.4,0.2-0.6,0.3c0.2,0.1,0.3,0.2,0.5,0.3c0.2,0.2,0.3,0.3,0.4,0.5L84.7,29.8z M82.7,25.5
		c0-0.3-0.1-0.5-0.3-0.6c-0.3-0.2-0.5-0.2-0.8-0.2H81v1.8h0.5c0.2,0,0.3,0,0.5-0.1c0.2,0,0.3-0.1,0.4-0.2c0.1-0.1,0.2-0.2,0.3-0.3
		C82.7,25.7,82.7,25.6,82.7,25.5z"/>
	<path class="st0" d="M85.8,28.4c0.1,0.1,0.3,0.2,0.4,0.3c0.2,0.1,0.3,0.2,0.4,0.2c0.2,0.1,0.3,0.1,0.5,0.1s0.3,0,0.4,0
		c0.3,0,0.6-0.1,0.8-0.2c0.2-0.1,0.3-0.3,0.3-0.5c0-0.1,0-0.2-0.1-0.3c-0.1-0.1-0.2-0.2-0.3-0.3c-0.2-0.1-0.3-0.2-0.4-0.3
		c-0.2-0.1-0.4-0.2-0.7-0.3c-0.4-0.2-0.8-0.4-1.2-0.8c-0.3-0.3-0.3-0.7-0.3-1c0-0.3,0.1-0.5,0.2-0.8c0.2-0.3,0.3-0.4,0.5-0.5
		c0.3-0.2,0.5-0.3,0.8-0.3c0.3-0.1,0.6-0.1,0.9-0.1c0.3,0,0.6,0,0.8,0.1c0.3,0,0.4,0.1,0.7,0.2v1.2c-0.3-0.2-0.4-0.3-0.7-0.3
		c-0.3-0.1-0.5-0.1-0.8-0.1s-0.6,0.1-0.8,0.2c-0.2,0.1-0.3,0.3-0.3,0.5c0,0.1,0,0.2,0.1,0.3c0.1,0.1,0.1,0.2,0.2,0.3
		s0.3,0.2,0.3,0.3c0.2,0.1,0.3,0.2,0.6,0.3c0.3,0.1,0.5,0.3,0.8,0.3c0.2,0.1,0.3,0.3,0.5,0.4c0.2,0.2,0.3,0.3,0.3,0.5
		c0.1,0.2,0.1,0.4,0.1,0.6c0,0.3-0.1,0.5-0.2,0.8c-0.1,0.3-0.3,0.4-0.5,0.6c-0.3,0.2-0.5,0.3-0.8,0.3c-0.3,0.1-0.7,0.1-1,0.1
		c-0.2,0-0.3,0-0.5,0s-0.3,0-0.5-0.1c-0.2,0-0.3-0.1-0.4-0.1c-0.1,0-0.3-0.1-0.3-0.2L85.8,28.4z"/>
	<path class="st0" d="M97.4,29.8h-1.4v-2.6h-2.8v2.6h-1.4v-6.1h1.4v2.5h2.8v-2.5h1.4V29.8z"/>
	<path class="st0" d="M103.3,29.8h-3.8v-6.1h3.6v1h-2.3v1.5h2.1v1h-2.1v1.5h2.5L103.3,29.8z"/>
	<path class="st0" d="M108.8,29.8H105v-6.1h1.4v5.1h2.5V29.8z"/>
	<path class="st0" d="M114,29.8h-3.8v-6.1h1.4v5.1h2.5V29.8z"/>
	<path class="st0" d="M119.6,20.5v12.4H43.7V20.5H119.6 M120.7,19.4H42.6v14.5h78.1V19.4L120.7,19.4z"/>
	<path class="st0" d="M68.3,6.7h-0.9V10h0.9c1.3,0,1.9-0.6,1.9-1.7S69.6,6.7,68.3,6.7z"/>
	<path class="st0" d="M49.9,6.7h-0.9V10h0.9c1.3,0,1.9-0.6,1.9-1.7S51.1,6.7,49.9,6.7z"/>
	<path class="st0" d="M42.6,0v20.4H76V0.1L42.6,0z M53.2,10.8c-0.8,0.7-1.9,1-3,1h-1.2v3.6h-2.4V4.9h3.7c2.7,0,4,1.1,4,3.4
		C54.3,9.2,53.8,10.2,53.2,10.8z M62.9,15.5h-2.4v-4.2c0-1.2-0.4-1.8-1.3-1.8c-0.4,0-0.8,0.2-1,0.5c-0.3,0.3-0.4,0.8-0.4,1.2v4.3
		h-2.4V8h2.4v1.2l0,0c0.5-0.8,1.4-1.4,2.5-1.4c1.7,0,2.5,1,2.5,3.1L62.9,15.5z M71.6,10.8c-0.8,0.7-1.9,1-3,1h-1.2v3.6H65V4.9h3.7
		c2.7,0,4,1.1,4,3.4C72.8,9.2,72.4,10.2,71.6,10.8L71.6,10.8z"/>
	<path class="st0" d="M119.6,1.2v18.2H76V1.2H119.6 M120.7,0.1H75v20.4h45.8L120.7,0.1L120.7,0.1z"/>
	<g class="st1">
		<path class="st0" d="M90.9,14.9h-3l-1.3-5.4c0-0.2-0.1-0.5-0.1-1.2h0c-0.1,0.5-0.1,0.9-0.2,1.2l-1.4,5.4h-3.2l-2.3-9.5h3.1
			l0.8,5.6c0,0.1,0,0.3,0.1,0.6l0,0.5h0c0-0.1,0-0.3,0.1-0.6c0-0.3,0.1-0.5,0.1-0.6L85,5.4h3.1l1.2,5.6l0.1,0.6l0.1,0.5h0l0-0.2
			l0.1-0.9l0.8-5.6h2.8L90.9,14.9z"/>
		<path class="st0" d="M101,12c0,0.6-0.2,1.2-0.5,1.6c-0.3,0.5-0.8,0.8-1.4,1c-0.6,0.2-1.3,0.3-2.2,0.3c-1,0-1.9-0.2-2.7-0.5V12
			c0.4,0.3,0.8,0.5,1.3,0.7s0.9,0.3,1.3,0.3c0.3,0,0.6-0.1,0.7-0.2s0.3-0.3,0.3-0.5c0-0.2,0-0.3-0.1-0.4s-0.2-0.2-0.4-0.3
			c-0.2-0.1-0.5-0.2-1-0.4C94.7,10.5,94,9.6,94,8.3c0-0.9,0.3-1.6,1-2.2c0.7-0.5,1.6-0.8,2.8-0.8c0.3,0,0.6,0,0.9,0s0.5,0.1,0.8,0.1
			c0.2,0,0.5,0.1,1,0.2V8c-0.8-0.4-1.6-0.7-2.4-0.7c-0.3,0-0.6,0.1-0.8,0.2C97.1,7.7,97,7.8,97,8c0,0.2,0.1,0.4,0.2,0.5
			c0.2,0.1,0.5,0.3,1,0.5c1,0.4,1.7,0.8,2.1,1.3C100.8,10.8,101,11.4,101,12z"/>
		<path class="st0" d="M102.1,14.9V5.4h2.9v7.2h3.3v2.2H102.1z"/>
	</g>
	<g class="st1">
		<path class="st0" d="M110.1,14.7V14c0-0.5,0.1-1,0.2-1.4c0.1-0.4,0.3-0.8,0.6-1.1c0.3-0.3,0.8-0.8,1.5-1.3c0.5-0.4,0.8-0.7,1-0.9
			c0.2-0.2,0.3-0.3,0.4-0.5s0.1-0.3,0.1-0.5c0-0.6-0.4-0.9-1.1-0.9c-0.8,0-1.5,0.3-2.2,0.8V5.8c0.5-0.3,1-0.4,1.5-0.6
			s0.9-0.2,1.4-0.2c1,0,1.8,0.2,2.4,0.7c0.6,0.5,0.8,1.2,0.8,2.1c0,0.7-0.1,1.3-0.4,1.7c-0.3,0.5-0.8,1-1.6,1.5
			c-0.6,0.4-1,0.7-1.2,0.9c-0.2,0.2-0.3,0.3-0.3,0.5h3.7v2.3H110.1z"/>
	</g>
</g>
</svg>
